<mxfile host="app.diagrams.net" modified="2022-02-14T19:24:25.175Z" agent="5.0 (Macintosh; Intel Mac OS X 10_15_7) AppleWebKit/605.1.15 (KHTML, like Gecko) Version/15.3 Safari/605.1.15" etag="jI-yjHx-IHNiaDYFerce" version="16.5.6" type="github">
  <diagram id="1BeaNvFZOrJ4yZ1JKT3H" name="Page-1">
    <mxGraphModel dx="1101" dy="459" grid="1" gridSize="10" guides="1" tooltips="1" connect="1" arrows="1" fold="1" page="0" pageScale="1" pageWidth="850" pageHeight="1100" math="0" shadow="0">
      <root>
        <mxCell id="0" />
        <mxCell id="1" parent="0" />
        <mxCell id="0N3fPxSNlgeO_tsuWIb--37" value="Soil features by importance" style="shape=table;startSize=30;container=1;collapsible=0;childLayout=tableLayout;fontStyle=1;align=center;" vertex="1" parent="1">
          <mxGeometry x="-120" y="30" width="478" height="390" as="geometry" />
        </mxCell>
        <mxCell id="0N3fPxSNlgeO_tsuWIb--38" value="" style="shape=tableRow;horizontal=0;startSize=0;swimlaneHead=0;swimlaneBody=0;top=0;left=0;bottom=0;right=0;collapsible=0;dropTarget=0;fillColor=none;points=[[0,0.5],[1,0.5]];portConstraint=eastwest;" vertex="1" parent="0N3fPxSNlgeO_tsuWIb--37">
          <mxGeometry y="30" width="478" height="40" as="geometry" />
        </mxCell>
        <mxCell id="0N3fPxSNlgeO_tsuWIb--39" value="Feature" style="shape=partialRectangle;html=1;whiteSpace=wrap;connectable=0;fillColor=none;top=0;left=0;bottom=0;right=0;overflow=hidden;rowspan=2;colspan=1;" vertex="1" parent="0N3fPxSNlgeO_tsuWIb--38">
          <mxGeometry width="121" height="80" as="geometry">
            <mxRectangle width="121" height="40" as="alternateBounds" />
          </mxGeometry>
        </mxCell>
        <mxCell id="0N3fPxSNlgeO_tsuWIb--40" value="Values" style="shape=partialRectangle;html=1;whiteSpace=wrap;connectable=0;fillColor=none;top=0;left=0;bottom=0;right=0;overflow=hidden;rowspan=1;colspan=2;" vertex="1" parent="0N3fPxSNlgeO_tsuWIb--38">
          <mxGeometry x="121" width="236" height="40" as="geometry">
            <mxRectangle width="118" height="40" as="alternateBounds" />
          </mxGeometry>
        </mxCell>
        <mxCell id="0N3fPxSNlgeO_tsuWIb--86" style="shape=partialRectangle;html=1;whiteSpace=wrap;connectable=0;fillColor=none;top=0;left=0;bottom=0;right=0;overflow=hidden;" vertex="1" visible="0" parent="0N3fPxSNlgeO_tsuWIb--38">
          <mxGeometry x="239" width="118" height="40" as="geometry">
            <mxRectangle width="118" height="40" as="alternateBounds" />
          </mxGeometry>
        </mxCell>
        <mxCell id="0N3fPxSNlgeO_tsuWIb--41" value="Importance&amp;nbsp;" style="shape=partialRectangle;html=1;whiteSpace=wrap;connectable=0;fillColor=none;top=0;left=0;bottom=0;right=0;overflow=hidden;rowspan=2;colspan=1;" vertex="1" parent="0N3fPxSNlgeO_tsuWIb--38">
          <mxGeometry x="357" width="121" height="80" as="geometry">
            <mxRectangle width="121" height="40" as="alternateBounds" />
          </mxGeometry>
        </mxCell>
        <mxCell id="0N3fPxSNlgeO_tsuWIb--94" style="shape=tableRow;horizontal=0;startSize=0;swimlaneHead=0;swimlaneBody=0;top=0;left=0;bottom=0;right=0;collapsible=0;dropTarget=0;fillColor=none;points=[[0,0.5],[1,0.5]];portConstraint=eastwest;" vertex="1" parent="0N3fPxSNlgeO_tsuWIb--37">
          <mxGeometry y="70" width="478" height="40" as="geometry" />
        </mxCell>
        <mxCell id="0N3fPxSNlgeO_tsuWIb--95" style="shape=partialRectangle;html=1;whiteSpace=wrap;connectable=0;fillColor=none;top=0;left=0;bottom=0;right=0;overflow=hidden;" vertex="1" visible="0" parent="0N3fPxSNlgeO_tsuWIb--94">
          <mxGeometry width="121" height="40" as="geometry">
            <mxRectangle width="121" height="40" as="alternateBounds" />
          </mxGeometry>
        </mxCell>
        <mxCell id="0N3fPxSNlgeO_tsuWIb--96" value="Desirable" style="shape=partialRectangle;html=1;whiteSpace=wrap;connectable=0;fillColor=none;top=0;left=0;bottom=0;right=0;overflow=hidden;" vertex="1" parent="0N3fPxSNlgeO_tsuWIb--94">
          <mxGeometry x="121" width="118" height="40" as="geometry">
            <mxRectangle width="118" height="40" as="alternateBounds" />
          </mxGeometry>
        </mxCell>
        <mxCell id="0N3fPxSNlgeO_tsuWIb--97" value="Undesirable" style="shape=partialRectangle;html=1;whiteSpace=wrap;connectable=0;fillColor=none;top=0;left=0;bottom=0;right=0;overflow=hidden;" vertex="1" parent="0N3fPxSNlgeO_tsuWIb--94">
          <mxGeometry x="239" width="118" height="40" as="geometry">
            <mxRectangle width="118" height="40" as="alternateBounds" />
          </mxGeometry>
        </mxCell>
        <mxCell id="0N3fPxSNlgeO_tsuWIb--98" style="shape=partialRectangle;html=1;whiteSpace=wrap;connectable=0;fillColor=none;top=0;left=0;bottom=0;right=0;overflow=hidden;" vertex="1" visible="0" parent="0N3fPxSNlgeO_tsuWIb--94">
          <mxGeometry x="357" width="121" height="40" as="geometry">
            <mxRectangle width="121" height="40" as="alternateBounds" />
          </mxGeometry>
        </mxCell>
        <mxCell id="0N3fPxSNlgeO_tsuWIb--42" value="" style="shape=tableRow;horizontal=0;startSize=0;swimlaneHead=0;swimlaneBody=0;top=0;left=0;bottom=0;right=0;collapsible=0;dropTarget=0;fillColor=none;points=[[0,0.5],[1,0.5]];portConstraint=eastwest;" vertex="1" parent="0N3fPxSNlgeO_tsuWIb--37">
          <mxGeometry y="110" width="478" height="40" as="geometry" />
        </mxCell>
        <mxCell id="0N3fPxSNlgeO_tsuWIb--43" value="Internal water drainage" style="shape=partialRectangle;html=1;whiteSpace=wrap;connectable=0;fillColor=none;top=0;left=0;bottom=0;right=0;overflow=hidden;" vertex="1" parent="0N3fPxSNlgeO_tsuWIb--42">
          <mxGeometry width="121" height="40" as="geometry">
            <mxRectangle width="121" height="40" as="alternateBounds" />
          </mxGeometry>
        </mxCell>
        <mxCell id="0N3fPxSNlgeO_tsuWIb--44" value="&amp;gt; 2&quot;/hr" style="shape=partialRectangle;html=1;whiteSpace=wrap;connectable=0;fillColor=none;top=0;left=0;bottom=0;right=0;overflow=hidden;" vertex="1" parent="0N3fPxSNlgeO_tsuWIb--42">
          <mxGeometry x="121" width="118" height="40" as="geometry">
            <mxRectangle width="118" height="40" as="alternateBounds" />
          </mxGeometry>
        </mxCell>
        <mxCell id="0N3fPxSNlgeO_tsuWIb--87" value="&lt;span&gt;&amp;lt; 2&quot;/hr&lt;/span&gt;" style="shape=partialRectangle;html=1;whiteSpace=wrap;connectable=0;fillColor=none;top=0;left=0;bottom=0;right=0;overflow=hidden;" vertex="1" parent="0N3fPxSNlgeO_tsuWIb--42">
          <mxGeometry x="239" width="118" height="40" as="geometry">
            <mxRectangle width="118" height="40" as="alternateBounds" />
          </mxGeometry>
        </mxCell>
        <mxCell id="0N3fPxSNlgeO_tsuWIb--45" value="1" style="shape=partialRectangle;html=1;whiteSpace=wrap;connectable=0;fillColor=none;top=0;left=0;bottom=0;right=0;overflow=hidden;" vertex="1" parent="0N3fPxSNlgeO_tsuWIb--42">
          <mxGeometry x="357" width="121" height="40" as="geometry">
            <mxRectangle width="121" height="40" as="alternateBounds" />
          </mxGeometry>
        </mxCell>
        <mxCell id="0N3fPxSNlgeO_tsuWIb--46" value="" style="shape=tableRow;horizontal=0;startSize=0;swimlaneHead=0;swimlaneBody=0;top=0;left=0;bottom=0;right=0;collapsible=0;dropTarget=0;fillColor=none;points=[[0,0.5],[1,0.5]];portConstraint=eastwest;" vertex="1" parent="0N3fPxSNlgeO_tsuWIb--37">
          <mxGeometry y="150" width="478" height="40" as="geometry" />
        </mxCell>
        <mxCell id="0N3fPxSNlgeO_tsuWIb--47" value="Water holding capacity" style="shape=partialRectangle;html=1;whiteSpace=wrap;connectable=0;fillColor=none;top=0;left=0;bottom=0;right=0;overflow=hidden;" vertex="1" parent="0N3fPxSNlgeO_tsuWIb--46">
          <mxGeometry width="121" height="40" as="geometry">
            <mxRectangle width="121" height="40" as="alternateBounds" />
          </mxGeometry>
        </mxCell>
        <mxCell id="0N3fPxSNlgeO_tsuWIb--48" value="" style="shape=partialRectangle;html=1;whiteSpace=wrap;connectable=0;fillColor=none;top=0;left=0;bottom=0;right=0;overflow=hidden;" vertex="1" parent="0N3fPxSNlgeO_tsuWIb--46">
          <mxGeometry x="121" width="118" height="40" as="geometry">
            <mxRectangle width="118" height="40" as="alternateBounds" />
          </mxGeometry>
        </mxCell>
        <mxCell id="0N3fPxSNlgeO_tsuWIb--88" style="shape=partialRectangle;html=1;whiteSpace=wrap;connectable=0;fillColor=none;top=0;left=0;bottom=0;right=0;overflow=hidden;" vertex="1" parent="0N3fPxSNlgeO_tsuWIb--46">
          <mxGeometry x="239" width="118" height="40" as="geometry">
            <mxRectangle width="118" height="40" as="alternateBounds" />
          </mxGeometry>
        </mxCell>
        <mxCell id="0N3fPxSNlgeO_tsuWIb--49" value="2" style="shape=partialRectangle;html=1;whiteSpace=wrap;connectable=0;fillColor=none;top=0;left=0;bottom=0;right=0;overflow=hidden;" vertex="1" parent="0N3fPxSNlgeO_tsuWIb--46">
          <mxGeometry x="357" width="121" height="40" as="geometry">
            <mxRectangle width="121" height="40" as="alternateBounds" />
          </mxGeometry>
        </mxCell>
        <mxCell id="0N3fPxSNlgeO_tsuWIb--50" value="" style="shape=tableRow;horizontal=0;startSize=0;swimlaneHead=0;swimlaneBody=0;top=0;left=0;bottom=0;right=0;collapsible=0;dropTarget=0;fillColor=none;points=[[0,0.5],[1,0.5]];portConstraint=eastwest;" vertex="1" parent="0N3fPxSNlgeO_tsuWIb--37">
          <mxGeometry y="190" width="478" height="40" as="geometry" />
        </mxCell>
        <mxCell id="0N3fPxSNlgeO_tsuWIb--51" value="Fertility" style="shape=partialRectangle;html=1;whiteSpace=wrap;connectable=0;fillColor=none;top=0;left=0;bottom=0;right=0;overflow=hidden;" vertex="1" parent="0N3fPxSNlgeO_tsuWIb--50">
          <mxGeometry width="121" height="40" as="geometry">
            <mxRectangle width="121" height="40" as="alternateBounds" />
          </mxGeometry>
        </mxCell>
        <mxCell id="0N3fPxSNlgeO_tsuWIb--52" value="" style="shape=partialRectangle;html=1;whiteSpace=wrap;connectable=0;fillColor=none;top=0;left=0;bottom=0;right=0;overflow=hidden;" vertex="1" parent="0N3fPxSNlgeO_tsuWIb--50">
          <mxGeometry x="121" width="118" height="40" as="geometry">
            <mxRectangle width="118" height="40" as="alternateBounds" />
          </mxGeometry>
        </mxCell>
        <mxCell id="0N3fPxSNlgeO_tsuWIb--89" style="shape=partialRectangle;html=1;whiteSpace=wrap;connectable=0;fillColor=none;top=0;left=0;bottom=0;right=0;overflow=hidden;" vertex="1" parent="0N3fPxSNlgeO_tsuWIb--50">
          <mxGeometry x="239" width="118" height="40" as="geometry">
            <mxRectangle width="118" height="40" as="alternateBounds" />
          </mxGeometry>
        </mxCell>
        <mxCell id="0N3fPxSNlgeO_tsuWIb--53" value="3" style="shape=partialRectangle;html=1;whiteSpace=wrap;connectable=0;fillColor=none;top=0;left=0;bottom=0;right=0;overflow=hidden;" vertex="1" parent="0N3fPxSNlgeO_tsuWIb--50">
          <mxGeometry x="357" width="121" height="40" as="geometry">
            <mxRectangle width="121" height="40" as="alternateBounds" />
          </mxGeometry>
        </mxCell>
        <mxCell id="0N3fPxSNlgeO_tsuWIb--54" value="" style="shape=tableRow;horizontal=0;startSize=0;swimlaneHead=0;swimlaneBody=0;top=0;left=0;bottom=0;right=0;collapsible=0;dropTarget=0;fillColor=none;points=[[0,0.5],[1,0.5]];portConstraint=eastwest;" vertex="1" parent="0N3fPxSNlgeO_tsuWIb--37">
          <mxGeometry y="230" width="478" height="40" as="geometry" />
        </mxCell>
        <mxCell id="0N3fPxSNlgeO_tsuWIb--55" value="Effective rooting (soil depth)" style="shape=partialRectangle;html=1;whiteSpace=wrap;connectable=0;fillColor=none;top=0;left=0;bottom=0;right=0;overflow=hidden;" vertex="1" parent="0N3fPxSNlgeO_tsuWIb--54">
          <mxGeometry width="121" height="40" as="geometry">
            <mxRectangle width="121" height="40" as="alternateBounds" />
          </mxGeometry>
        </mxCell>
        <mxCell id="0N3fPxSNlgeO_tsuWIb--56" value="" style="shape=partialRectangle;html=1;whiteSpace=wrap;connectable=0;fillColor=none;top=0;left=0;bottom=0;right=0;overflow=hidden;" vertex="1" parent="0N3fPxSNlgeO_tsuWIb--54">
          <mxGeometry x="121" width="118" height="40" as="geometry">
            <mxRectangle width="118" height="40" as="alternateBounds" />
          </mxGeometry>
        </mxCell>
        <mxCell id="0N3fPxSNlgeO_tsuWIb--90" style="shape=partialRectangle;html=1;whiteSpace=wrap;connectable=0;fillColor=none;top=0;left=0;bottom=0;right=0;overflow=hidden;" vertex="1" parent="0N3fPxSNlgeO_tsuWIb--54">
          <mxGeometry x="239" width="118" height="40" as="geometry">
            <mxRectangle width="118" height="40" as="alternateBounds" />
          </mxGeometry>
        </mxCell>
        <mxCell id="0N3fPxSNlgeO_tsuWIb--57" value="4" style="shape=partialRectangle;html=1;whiteSpace=wrap;connectable=0;fillColor=none;top=0;left=0;bottom=0;right=0;overflow=hidden;" vertex="1" parent="0N3fPxSNlgeO_tsuWIb--54">
          <mxGeometry x="357" width="121" height="40" as="geometry">
            <mxRectangle width="121" height="40" as="alternateBounds" />
          </mxGeometry>
        </mxCell>
        <mxCell id="0N3fPxSNlgeO_tsuWIb--58" value="" style="shape=tableRow;horizontal=0;startSize=0;swimlaneHead=0;swimlaneBody=0;top=0;left=0;bottom=0;right=0;collapsible=0;dropTarget=0;fillColor=none;points=[[0,0.5],[1,0.5]];portConstraint=eastwest;" vertex="1" parent="0N3fPxSNlgeO_tsuWIb--37">
          <mxGeometry y="270" width="478" height="40" as="geometry" />
        </mxCell>
        <mxCell id="0N3fPxSNlgeO_tsuWIb--59" value="Water holding capacity" style="shape=partialRectangle;html=1;whiteSpace=wrap;connectable=0;fillColor=none;top=0;left=0;bottom=0;right=0;overflow=hidden;" vertex="1" parent="0N3fPxSNlgeO_tsuWIb--58">
          <mxGeometry width="121" height="40" as="geometry">
            <mxRectangle width="121" height="40" as="alternateBounds" />
          </mxGeometry>
        </mxCell>
        <mxCell id="0N3fPxSNlgeO_tsuWIb--60" value="" style="shape=partialRectangle;html=1;whiteSpace=wrap;connectable=0;fillColor=none;top=0;left=0;bottom=0;right=0;overflow=hidden;" vertex="1" parent="0N3fPxSNlgeO_tsuWIb--58">
          <mxGeometry x="121" width="118" height="40" as="geometry">
            <mxRectangle width="118" height="40" as="alternateBounds" />
          </mxGeometry>
        </mxCell>
        <mxCell id="0N3fPxSNlgeO_tsuWIb--91" style="shape=partialRectangle;html=1;whiteSpace=wrap;connectable=0;fillColor=none;top=0;left=0;bottom=0;right=0;overflow=hidden;" vertex="1" parent="0N3fPxSNlgeO_tsuWIb--58">
          <mxGeometry x="239" width="118" height="40" as="geometry">
            <mxRectangle width="118" height="40" as="alternateBounds" />
          </mxGeometry>
        </mxCell>
        <mxCell id="0N3fPxSNlgeO_tsuWIb--61" value="5" style="shape=partialRectangle;html=1;whiteSpace=wrap;connectable=0;fillColor=none;top=0;left=0;bottom=0;right=0;overflow=hidden;" vertex="1" parent="0N3fPxSNlgeO_tsuWIb--58">
          <mxGeometry x="357" width="121" height="40" as="geometry">
            <mxRectangle width="121" height="40" as="alternateBounds" />
          </mxGeometry>
        </mxCell>
        <mxCell id="0N3fPxSNlgeO_tsuWIb--62" value="" style="shape=tableRow;horizontal=0;startSize=0;swimlaneHead=0;swimlaneBody=0;top=0;left=0;bottom=0;right=0;collapsible=0;dropTarget=0;fillColor=none;points=[[0,0.5],[1,0.5]];portConstraint=eastwest;" vertex="1" parent="0N3fPxSNlgeO_tsuWIb--37">
          <mxGeometry y="310" width="478" height="40" as="geometry" />
        </mxCell>
        <mxCell id="0N3fPxSNlgeO_tsuWIb--63" value="Moist bulk density" style="shape=partialRectangle;html=1;whiteSpace=wrap;connectable=0;fillColor=none;top=0;left=0;bottom=0;right=0;overflow=hidden;" vertex="1" parent="0N3fPxSNlgeO_tsuWIb--62">
          <mxGeometry width="121" height="40" as="geometry">
            <mxRectangle width="121" height="40" as="alternateBounds" />
          </mxGeometry>
        </mxCell>
        <mxCell id="0N3fPxSNlgeO_tsuWIb--64" value="" style="shape=partialRectangle;html=1;whiteSpace=wrap;connectable=0;fillColor=none;top=0;left=0;bottom=0;right=0;overflow=hidden;" vertex="1" parent="0N3fPxSNlgeO_tsuWIb--62">
          <mxGeometry x="121" width="118" height="40" as="geometry">
            <mxRectangle width="118" height="40" as="alternateBounds" />
          </mxGeometry>
        </mxCell>
        <mxCell id="0N3fPxSNlgeO_tsuWIb--92" style="shape=partialRectangle;html=1;whiteSpace=wrap;connectable=0;fillColor=none;top=0;left=0;bottom=0;right=0;overflow=hidden;" vertex="1" parent="0N3fPxSNlgeO_tsuWIb--62">
          <mxGeometry x="239" width="118" height="40" as="geometry">
            <mxRectangle width="118" height="40" as="alternateBounds" />
          </mxGeometry>
        </mxCell>
        <mxCell id="0N3fPxSNlgeO_tsuWIb--65" value="5" style="shape=partialRectangle;html=1;whiteSpace=wrap;connectable=0;fillColor=none;top=0;left=0;bottom=0;right=0;overflow=hidden;" vertex="1" parent="0N3fPxSNlgeO_tsuWIb--62">
          <mxGeometry x="357" width="121" height="40" as="geometry">
            <mxRectangle width="121" height="40" as="alternateBounds" />
          </mxGeometry>
        </mxCell>
        <mxCell id="0N3fPxSNlgeO_tsuWIb--66" value="" style="shape=tableRow;horizontal=0;startSize=0;swimlaneHead=0;swimlaneBody=0;top=0;left=0;bottom=0;right=0;collapsible=0;dropTarget=0;fillColor=none;points=[[0,0.5],[1,0.5]];portConstraint=eastwest;" vertex="1" parent="0N3fPxSNlgeO_tsuWIb--37">
          <mxGeometry y="350" width="478" height="40" as="geometry" />
        </mxCell>
        <mxCell id="0N3fPxSNlgeO_tsuWIb--67" value="Texture" style="shape=partialRectangle;html=1;whiteSpace=wrap;connectable=0;fillColor=none;top=0;left=0;bottom=0;right=0;overflow=hidden;" vertex="1" parent="0N3fPxSNlgeO_tsuWIb--66">
          <mxGeometry width="121" height="40" as="geometry">
            <mxRectangle width="121" height="40" as="alternateBounds" />
          </mxGeometry>
        </mxCell>
        <mxCell id="0N3fPxSNlgeO_tsuWIb--68" value="" style="shape=partialRectangle;html=1;whiteSpace=wrap;connectable=0;fillColor=none;top=0;left=0;bottom=0;right=0;overflow=hidden;" vertex="1" parent="0N3fPxSNlgeO_tsuWIb--66">
          <mxGeometry x="121" width="118" height="40" as="geometry">
            <mxRectangle width="118" height="40" as="alternateBounds" />
          </mxGeometry>
        </mxCell>
        <mxCell id="0N3fPxSNlgeO_tsuWIb--93" style="shape=partialRectangle;html=1;whiteSpace=wrap;connectable=0;fillColor=none;top=0;left=0;bottom=0;right=0;overflow=hidden;" vertex="1" parent="0N3fPxSNlgeO_tsuWIb--66">
          <mxGeometry x="239" width="118" height="40" as="geometry">
            <mxRectangle width="118" height="40" as="alternateBounds" />
          </mxGeometry>
        </mxCell>
        <mxCell id="0N3fPxSNlgeO_tsuWIb--69" value="5" style="shape=partialRectangle;html=1;whiteSpace=wrap;connectable=0;fillColor=none;top=0;left=0;bottom=0;right=0;overflow=hidden;" vertex="1" parent="0N3fPxSNlgeO_tsuWIb--66">
          <mxGeometry x="357" width="121" height="40" as="geometry">
            <mxRectangle width="121" height="40" as="alternateBounds" />
          </mxGeometry>
        </mxCell>
      </root>
    </mxGraphModel>
  </diagram>
</mxfile>
